<?xml version="1.0" encoding="UTF-8"?>
<svg width="199.8" height="199.8" version="1.2" viewBox="0 0 6e3 6e3" xmlns="http://www.w3.org/2000/svg" baseProfile="tiny-ps">
 <title>Highland Park Community Association</title>
 <rect x="1.3321" y=".011352" width="5998.5" height="6e3" stroke-width="29.826"/>
 <path id="A" d="m872.91 882.65v55.1h192.67v1919.8h-192.67v55.1h1018.9v-55.1h-189.41v-945.4h649.87v945.4h-192.68v55.1h1022.2v-55.1h-192.67v-1919.8h192.67v-55.1h-1022.2v55.1h192.68v899h-649.87v-899h189.41v-55.1zm2426.3 0v55.1h212.27v1919.8h-212.27v55.1h1257.3v-55.1h-408.2v-777.2h26.12c633.54 0 1061.3-127.6 1061.3-620.6 0-455.3-362.49-577.1-976.43-577.1zm849.07 55.1h88.17c248.19 0 326.57 116 326.57 443.7v139.2c0 336.4-71.85 504.6-346.16 504.6h-68.58zm243.53 4144.5h-231.86v55.1h1067.9v-55.1h-150.22l-822.94-1992.4h-267.78l-832.74 1992.4h-153.49v55.1h499.65v-55.1h-244.93l251.46-626.42h646.59zm-548.63-1450 284.11 759.82h-591.08z" fill="#fff"/>
 <path id="C" d="m2045.4 3104.4c280.85 0 476.78 246.51 656.39 603.22h58.79l-26.13-629.32h-35.92c-22.86 37.7-35.92 58-88.17 58-114.3 0-271.05-89.9-610.68-89.9-669.45 0-1126.6 371.21-1126.6 1073 0 693.12 424.53 1017.9 1116.9 1017.9 359.22 0 538.83-89.9 649.86-89.9 52.25 0 65.31 20.3 88.17 58h35.92l22.86-646.72h-58.78c-182.88 377.01-395.14 620.62-659.66 620.62-355.95 0-529.03-345.11-529.03-878.73v-229.11c0-600.32 176.34-867.13 506.17-867.13z" fill="#56ac46"/>
</svg>
